<?xml version="1.0" encoding="UTF-8" standalone="no"?><svg xmlns="http://www.w3.org/2000/svg" xmlns:xlink="http://www.w3.org/1999/xlink" contentScriptType="application/ecmascript" contentStyleType="text/css" height="345px" preserveAspectRatio="none" style="width:304px;height:345px;background:#FFFFFF;" version="1.1" viewBox="0 0 304 345" width="304px" zoomAndPan="magnify"><defs><filter height="300%" id="f9al8m37lr1o1" width="300%" x="-1" y="-1"><feGaussianBlur result="blurOut" stdDeviation="2.0"/><feColorMatrix in="blurOut" result="blurOut2" type="matrix" values="0 0 0 0 0 0 0 0 0 0 0 0 0 0 0 0 0 0 .4 0"/><feOffset dx="4.0" dy="4.0" in="blurOut2" result="blurOut3"/><feBlend in="SourceGraphic" in2="blurOut3" mode="normal"/></filter></defs><g><!--MD5=[06d6f3349938f6ae40a99d3b0aeff155]
cluster Befehlsinterpreter--><polygon fill="#FFFFFF" filter="url(#f9al8m37lr1o1)" points="16,238,153,238,160,261.6094,287,261.6094,287,338,16,338,16,238" style="stroke:#000000;stroke-width:1.5;"/><line style="stroke:#000000;stroke-width:1.5;" x1="16" x2="160" y1="261.6094" y2="261.6094"/><text fill="#000000" font-family="sans-serif" font-size="14" font-weight="bold" lengthAdjust="spacing" textLength="131" x="20" y="254.5332">Befehlsinterpreter</text><!--MD5=[2be59ecc31c9c1cc90361d70494aecd1]
cluster DlmsQuickAccess.Dlms--><polygon fill="#FFFFFF" filter="url(#f9al8m37lr1o1)" points="17,6,185,6,192,29.6094,278,29.6094,278,214,17,214,17,6" style="stroke:#000000;stroke-width:1.5;"/><line style="stroke:#000000;stroke-width:1.5;" x1="17" x2="192" y1="29.6094" y2="29.6094"/><text fill="#000000" font-family="sans-serif" font-size="14" font-weight="bold" lengthAdjust="spacing" textLength="162" x="21" y="22.5332">DlmsQuickAccess.Dlms</text><!--MD5=[0ece5a64271898445ebb9ddb954192bb]
class CKommunikation--><rect codeLine="3" fill="#FEFECE" filter="url(#f9al8m37lr1o1)" height="48" id="CKommunikation" style="stroke:#A80036;stroke-width:1.5;" width="128" x="143" y="274"/><ellipse cx="158" cy="290" fill="#ADD1B2" rx="11" ry="11" style="stroke:#A80036;stroke-width:1.0;"/><path d="M160.7656,285.875 Q160.9219,285.6563 161.1094,285.5469 Q161.2969,285.4375 161.5156,285.4375 Q161.8906,285.4375 162.125,285.6953 Q162.3594,285.9531 162.3594,286.5625 L162.3594,288.0156 Q162.3594,288.625 162.125,288.8906 Q161.8906,289.1563 161.5156,289.1563 Q161.1719,289.1563 160.9688,288.9531 Q160.7656,288.7656 160.6563,288.25 Q160.6094,287.8906 160.4219,287.7031 Q160.0938,287.3281 159.4844,287.1094 Q158.875,286.8906 158.25,286.8906 Q157.4844,286.8906 156.8516,287.2188 Q156.2188,287.5469 155.7266,288.2969 Q155.2344,289.0469 155.2344,290.0781 L155.2344,291.1719 Q155.2344,292.4063 156.125,293.2266 Q157.0156,294.0469 158.6094,294.0469 Q159.5469,294.0469 160.2031,293.7969 Q160.5938,293.6406 161.0156,293.2031 Q161.2813,292.9375 161.4297,292.8594 Q161.5781,292.7813 161.7813,292.7813 Q162.1094,292.7813 162.3672,293.0391 Q162.625,293.2969 162.625,293.6406 Q162.625,293.9844 162.2813,294.3906 Q161.7813,294.9688 160.9844,295.2969 Q159.9063,295.75 158.6094,295.75 Q157.0938,295.75 155.8906,295.125 Q154.9063,294.625 154.2188,293.5547 Q153.5313,292.4844 153.5313,291.2031 L153.5313,290.0469 Q153.5313,288.7188 154.1484,287.5703 Q154.7656,286.4219 155.8594,285.8047 Q156.9531,285.1875 158.1875,285.1875 Q158.9219,285.1875 159.5703,285.3516 Q160.2188,285.5156 160.7656,285.875 Z " fill="#000000"/><text fill="#000000" font-family="sans-serif" font-size="12" lengthAdjust="spacing" textLength="96" x="172" y="294.9102">CKommunikation</text><line style="stroke:#A80036;stroke-width:1.5;" x1="144" x2="270" y1="306" y2="306"/><line style="stroke:#A80036;stroke-width:1.5;" x1="144" x2="270" y1="314" y2="314"/><!--MD5=[f81b092dd85bd27544ca410daf8512d9]
class CBefehl--><rect codeLine="4" fill="#FEFECE" filter="url(#f9al8m37lr1o1)" height="48" id="CBefehl" style="stroke:#A80036;stroke-width:1.5;" width="76" x="32" y="274"/><ellipse cx="47" cy="290" fill="#ADD1B2" rx="11" ry="11" style="stroke:#A80036;stroke-width:1.0;"/><path d="M49.7656,285.875 Q49.9219,285.6563 50.1094,285.5469 Q50.2969,285.4375 50.5156,285.4375 Q50.8906,285.4375 51.125,285.6953 Q51.3594,285.9531 51.3594,286.5625 L51.3594,288.0156 Q51.3594,288.625 51.125,288.8906 Q50.8906,289.1563 50.5156,289.1563 Q50.1719,289.1563 49.9688,288.9531 Q49.7656,288.7656 49.6563,288.25 Q49.6094,287.8906 49.4219,287.7031 Q49.0938,287.3281 48.4844,287.1094 Q47.875,286.8906 47.25,286.8906 Q46.4844,286.8906 45.8516,287.2188 Q45.2188,287.5469 44.7266,288.2969 Q44.2344,289.0469 44.2344,290.0781 L44.2344,291.1719 Q44.2344,292.4063 45.125,293.2266 Q46.0156,294.0469 47.6094,294.0469 Q48.5469,294.0469 49.2031,293.7969 Q49.5938,293.6406 50.0156,293.2031 Q50.2813,292.9375 50.4297,292.8594 Q50.5781,292.7813 50.7813,292.7813 Q51.1094,292.7813 51.3672,293.0391 Q51.625,293.2969 51.625,293.6406 Q51.625,293.9844 51.2813,294.3906 Q50.7813,294.9688 49.9844,295.2969 Q48.9063,295.75 47.6094,295.75 Q46.0938,295.75 44.8906,295.125 Q43.9063,294.625 43.2188,293.5547 Q42.5313,292.4844 42.5313,291.2031 L42.5313,290.0469 Q42.5313,288.7188 43.1484,287.5703 Q43.7656,286.4219 44.8594,285.8047 Q45.9531,285.1875 47.1875,285.1875 Q47.9219,285.1875 48.5703,285.3516 Q49.2188,285.5156 49.7656,285.875 Z " fill="#000000"/><text fill="#000000" font-family="sans-serif" font-size="12" lengthAdjust="spacing" textLength="44" x="61" y="294.9102">CBefehl</text><line style="stroke:#A80036;stroke-width:1.5;" x1="33" x2="107" y1="306" y2="306"/><line style="stroke:#A80036;stroke-width:1.5;" x1="33" x2="107" y1="314" y2="314"/><!--MD5=[92d424722643aa6e2b9c869f9cf1b33b]
class IRawReader--><rect codeLine="8" fill="#FEFECE" filter="url(#f9al8m37lr1o1)" height="48" id="IRawReader" style="stroke:#A80036;stroke-width:1.5;" width="101" x="160.5" y="42"/><ellipse cx="175.5" cy="58" fill="#B4A7E5" rx="11" ry="11" style="stroke:#A80036;stroke-width:1.0;"/><path d="M176.4531,54.6406 L176.4531,61.2969 L178.1719,61.2969 Q178.7813,61.2969 179.0469,61.5313 Q179.3125,61.7656 179.3125,62.1563 Q179.3125,62.5313 179.0469,62.7656 Q178.7813,63 178.1719,63 L173.0313,63 Q172.4219,63 172.1563,62.7656 Q171.8906,62.5313 171.8906,62.1406 Q171.8906,61.7656 172.1563,61.5313 Q172.4219,61.2969 173.0313,61.2969 L174.75,61.2969 L174.75,54.6406 L173.0313,54.6406 Q172.4219,54.6406 172.1563,54.4063 Q171.8906,54.1719 171.8906,53.7813 Q171.8906,53.4063 172.1563,53.1719 Q172.4219,52.9375 173.0313,52.9375 L178.1719,52.9375 Q178.7813,52.9375 179.0469,53.1719 Q179.3125,53.4063 179.3125,53.7813 Q179.3125,54.1719 179.0469,54.4063 Q178.7813,54.6406 178.1719,54.6406 L176.4531,54.6406 Z " fill="#000000"/><text fill="#000000" font-family="sans-serif" font-size="12" font-style="italic" lengthAdjust="spacing" textLength="69" x="189.5" y="62.9102">IRawReader</text><line style="stroke:#A80036;stroke-width:1.5;" x1="161.5" x2="260.5" y1="74" y2="74"/><line style="stroke:#A80036;stroke-width:1.5;" x1="161.5" x2="260.5" y1="82" y2="82"/><!--MD5=[e1ab01e67457a599d26668232e0f8111]
class IRawWriter--><rect codeLine="9" fill="#FEFECE" filter="url(#f9al8m37lr1o1)" height="48" id="IRawWriter" style="stroke:#A80036;stroke-width:1.5;" width="92" x="33" y="42"/><ellipse cx="48" cy="58" fill="#B4A7E5" rx="11" ry="11" style="stroke:#A80036;stroke-width:1.0;"/><path d="M48.9531,54.6406 L48.9531,61.2969 L50.6719,61.2969 Q51.2813,61.2969 51.5469,61.5313 Q51.8125,61.7656 51.8125,62.1563 Q51.8125,62.5313 51.5469,62.7656 Q51.2813,63 50.6719,63 L45.5313,63 Q44.9219,63 44.6563,62.7656 Q44.3906,62.5313 44.3906,62.1406 Q44.3906,61.7656 44.6563,61.5313 Q44.9219,61.2969 45.5313,61.2969 L47.25,61.2969 L47.25,54.6406 L45.5313,54.6406 Q44.9219,54.6406 44.6563,54.4063 Q44.3906,54.1719 44.3906,53.7813 Q44.3906,53.4063 44.6563,53.1719 Q44.9219,52.9375 45.5313,52.9375 L50.6719,52.9375 Q51.2813,52.9375 51.5469,53.1719 Q51.8125,53.4063 51.8125,53.7813 Q51.8125,54.1719 51.5469,54.4063 Q51.2813,54.6406 50.6719,54.6406 L48.9531,54.6406 Z " fill="#000000"/><text fill="#000000" font-family="sans-serif" font-size="12" font-style="italic" lengthAdjust="spacing" textLength="60" x="62" y="62.9102">IRawWriter</text><line style="stroke:#A80036;stroke-width:1.5;" x1="34" x2="124" y1="74" y2="74"/><line style="stroke:#A80036;stroke-width:1.5;" x1="34" x2="124" y1="82" y2="82"/><!--MD5=[13d2628ce05f155ced2ffc75215d678f]
class ReaderWriter--><rect codeLine="10" fill="#FEFECE" filter="url(#f9al8m37lr1o1)" height="48" id="ReaderWriter" style="stroke:#A80036;stroke-width:1.5;" width="105" x="93.5" y="150"/><ellipse cx="108.5" cy="166" fill="#ADD1B2" rx="11" ry="11" style="stroke:#A80036;stroke-width:1.0;"/><path d="M111.2656,161.875 Q111.4219,161.6563 111.6094,161.5469 Q111.7969,161.4375 112.0156,161.4375 Q112.3906,161.4375 112.625,161.6953 Q112.8594,161.9531 112.8594,162.5625 L112.8594,164.0156 Q112.8594,164.625 112.625,164.8906 Q112.3906,165.1563 112.0156,165.1563 Q111.6719,165.1563 111.4688,164.9531 Q111.2656,164.7656 111.1563,164.25 Q111.1094,163.8906 110.9219,163.7031 Q110.5938,163.3281 109.9844,163.1094 Q109.375,162.8906 108.75,162.8906 Q107.9844,162.8906 107.3516,163.2188 Q106.7188,163.5469 106.2266,164.2969 Q105.7344,165.0469 105.7344,166.0781 L105.7344,167.1719 Q105.7344,168.4063 106.625,169.2266 Q107.5156,170.0469 109.1094,170.0469 Q110.0469,170.0469 110.7031,169.7969 Q111.0938,169.6406 111.5156,169.2031 Q111.7813,168.9375 111.9297,168.8594 Q112.0781,168.7813 112.2813,168.7813 Q112.6094,168.7813 112.8672,169.0391 Q113.125,169.2969 113.125,169.6406 Q113.125,169.9844 112.7813,170.3906 Q112.2813,170.9688 111.4844,171.2969 Q110.4063,171.75 109.1094,171.75 Q107.5938,171.75 106.3906,171.125 Q105.4063,170.625 104.7188,169.5547 Q104.0313,168.4844 104.0313,167.2031 L104.0313,166.0469 Q104.0313,164.7188 104.6484,163.5703 Q105.2656,162.4219 106.3594,161.8047 Q107.4531,161.1875 108.6875,161.1875 Q109.4219,161.1875 110.0703,161.3516 Q110.7188,161.5156 111.2656,161.875 Z " fill="#000000"/><text fill="#000000" font-family="sans-serif" font-size="12" lengthAdjust="spacing" textLength="73" x="122.5" y="170.9102">ReaderWriter</text><line style="stroke:#A80036;stroke-width:1.5;" x1="94.5" x2="197.5" y1="182" y2="182"/><line style="stroke:#A80036;stroke-width:1.5;" x1="94.5" x2="197.5" y1="190" y2="190"/><!--MD5=[bb087d4acf69a914991c46dd44b1d7cb]
reverse link IRawReader to ReaderWriter--><path d="M186.39,107.13 C177.58,121.5 167.95,137.21 160.3,149.68 " fill="none" id="IRawReader-backto-ReaderWriter" style="stroke:#A80036;stroke-width:1.0;stroke-dasharray:7.0,7.0;"/><polygon fill="none" points="180.47,103.39,196.9,90,192.41,110.71,180.47,103.39" style="stroke:#A80036;stroke-width:1.0;"/><!--MD5=[9346055e27acc0555b975864ca52e6fb]
reverse link IRawWriter to ReaderWriter--><path d="M104.37,107.13 C113.45,121.5 123.38,137.21 131.26,149.68 " fill="none" id="IRawWriter-backto-ReaderWriter" style="stroke:#A80036;stroke-width:1.0;stroke-dasharray:7.0,7.0;"/><polygon fill="none" points="98.31,110.65,93.54,90,110.14,103.17,98.31,110.65" style="stroke:#A80036;stroke-width:1.0;"/><!--MD5=[3706b05774be0d3f539f07e7772a3e53]
link ReaderWriter to CKommunikation--><path codeLine="13" d="M162.9866,208.9631 C162.9866,208.9631 181.36,245.72 189.53,262.06 " fill="none" id="ReaderWriter-CKommunikation" style="stroke:#A80036;stroke-width:1.0;"/><polygon fill="#A80036" points="195.43,273.85,194.9828,264.0113,193.1939,269.3779,187.8274,267.589,195.43,273.85" style="stroke:#A80036;stroke-width:1.0;"/><line style="stroke:#A80036;stroke-width:1.0;" x1="193.1939" x2="189.61" y1="269.3779" y2="262.225"/><polygon fill="#A80036" points="157.62,198.23,156.7256,205.3854,162.9866,208.9631,163.881,201.8077,157.62,198.23" style="stroke:#A80036;stroke-width:1.0;"/><!--MD5=[64eda81438e619788b06f19ab26b41fe]
link ReaderWriter to CBefehl--><path codeLine="14" d="M125.1842,208.4149 C125.1842,208.4149 101.88,245.82 91.54,262.42 " fill="none" id="ReaderWriter-CBefehl" style="stroke:#A80036;stroke-width:1.0;"/><polygon fill="#A80036" points="84.42,273.85,92.5711,268.3219,87.0616,269.6048,85.7787,264.0953,84.42,273.85" style="stroke:#A80036;stroke-width:1.0;"/><line style="stroke:#A80036;stroke-width:1.0;" x1="87.0616" x2="91.295" y1="269.6048" y2="262.815"/><polygon fill="#A80036" points="131.53,198.23,124.9622,201.2072,125.1842,208.4149,131.7521,205.4377,131.53,198.23" style="stroke:#A80036;stroke-width:1.0;"/><!--MD5=[564a061802feeb5b2e3aeff4d3a0cc39]
@startuml

package Befehlsinterpreter{
   class CKommunikation
   class CBefehl
}

package DlmsQuickAccess.Dlms{
   interface IRawReader
   interface IRawWriter
   class ReaderWriter implements IRawReader, IRawWriter{

   }
   ReaderWriter *- -> CKommunikation
   ReaderWriter *- -> CBefehl

}

@enduml

PlantUML version 1.2022.0(Tue Jan 11 17:16:42 CET 2022)
(GPL source distribution)
Java Runtime: Java(TM) SE Runtime Environment
JVM: Java HotSpot(TM) 64-Bit Server VM
Default Encoding: Cp1252
Language: en
Country: US
--></g></svg>