<?xml version="1.0" encoding="UTF-8" standalone="no"?><svg xmlns="http://www.w3.org/2000/svg" xmlns:xlink="http://www.w3.org/1999/xlink" contentScriptType="application/ecmascript" contentStyleType="text/css" height="577px" preserveAspectRatio="none" style="width:373px;height:577px;background:#FFFFFF;" version="1.1" viewBox="0 0 373 577" width="373px" zoomAndPan="magnify"><defs><filter height="300%" id="f1oez0blb1mss0" width="300%" x="-1" y="-1"><feGaussianBlur result="blurOut" stdDeviation="2.0"/><feColorMatrix in="blurOut" result="blurOut2" type="matrix" values="0 0 0 0 0 0 0 0 0 0 0 0 0 0 0 0 0 0 .4 0"/><feOffset dx="4.0" dy="4.0" in="blurOut2" result="blurOut3"/><feBlend in="SourceGraphic" in2="blurOut3" mode="normal"/></filter></defs><g><!--MD5=[06d6f3349938f6ae40a99d3b0aeff155]
cluster Befehlsinterpreter--><polygon fill="#FFFFFF" filter="url(#f1oez0blb1mss0)" points="16,470,153,470,160,493.6094,287,493.6094,287,570,16,570,16,470" style="stroke:#000000;stroke-width:1.5;"/><line style="stroke:#000000;stroke-width:1.5;" x1="16" x2="160" y1="493.6094" y2="493.6094"/><text fill="#000000" font-family="sans-serif" font-size="14" font-weight="bold" lengthAdjust="spacing" textLength="131" x="20" y="486.5332">Befehlsinterpreter</text><!--MD5=[2be59ecc31c9c1cc90361d70494aecd1]
cluster DlmsQuickAccess.Dlms--><polygon fill="#FFFFFF" filter="url(#f1oez0blb1mss0)" points="72,6,240,6,247,29.6094,333,29.6094,333,322,72,322,72,6" style="stroke:#000000;stroke-width:1.5;"/><line style="stroke:#000000;stroke-width:1.5;" x1="72" x2="247" y1="29.6094" y2="29.6094"/><text fill="#000000" font-family="sans-serif" font-size="14" font-weight="bold" lengthAdjust="spacing" textLength="162" x="76" y="22.5332">DlmsQuickAccess.Dlms</text><!--MD5=[52dfe67832945cfdadeccbfe7f100f52]
cluster DlmsQuickAccess.Befehlsinterpreter--><polygon fill="#FFFFFF" filter="url(#f1oez0blb1mss0)" points="81,346,346,346,353,369.6094,356,369.6094,356,446,81,446,81,346" style="stroke:#000000;stroke-width:1.5;"/><line style="stroke:#000000;stroke-width:1.5;" x1="81" x2="353" y1="369.6094" y2="369.6094"/><text fill="#000000" font-family="sans-serif" font-size="14" font-weight="bold" lengthAdjust="spacing" textLength="259" x="85" y="362.5332">DlmsQuickAccess.Befehlsinterpreter</text><!--MD5=[0ece5a64271898445ebb9ddb954192bb]
class CKommunikation--><rect codeLine="3" fill="#FEFECE" filter="url(#f1oez0blb1mss0)" height="48" id="CKommunikation" style="stroke:#A80036;stroke-width:1.5;" width="128" x="143" y="506"/><ellipse cx="158" cy="522" fill="#ADD1B2" rx="11" ry="11" style="stroke:#A80036;stroke-width:1.0;"/><path d="M160.7656,517.875 Q160.9219,517.6563 161.1094,517.5469 Q161.2969,517.4375 161.5156,517.4375 Q161.8906,517.4375 162.125,517.6953 Q162.3594,517.9531 162.3594,518.5625 L162.3594,520.0156 Q162.3594,520.625 162.125,520.8906 Q161.8906,521.1563 161.5156,521.1563 Q161.1719,521.1563 160.9688,520.9531 Q160.7656,520.7656 160.6563,520.25 Q160.6094,519.8906 160.4219,519.7031 Q160.0938,519.3281 159.4844,519.1094 Q158.875,518.8906 158.25,518.8906 Q157.4844,518.8906 156.8516,519.2188 Q156.2188,519.5469 155.7266,520.2969 Q155.2344,521.0469 155.2344,522.0781 L155.2344,523.1719 Q155.2344,524.4063 156.125,525.2266 Q157.0156,526.0469 158.6094,526.0469 Q159.5469,526.0469 160.2031,525.7969 Q160.5938,525.6406 161.0156,525.2031 Q161.2813,524.9375 161.4297,524.8594 Q161.5781,524.7813 161.7813,524.7813 Q162.1094,524.7813 162.3672,525.0391 Q162.625,525.2969 162.625,525.6406 Q162.625,525.9844 162.2813,526.3906 Q161.7813,526.9688 160.9844,527.2969 Q159.9063,527.75 158.6094,527.75 Q157.0938,527.75 155.8906,527.125 Q154.9063,526.625 154.2188,525.5547 Q153.5313,524.4844 153.5313,523.2031 L153.5313,522.0469 Q153.5313,520.7188 154.1484,519.5703 Q154.7656,518.4219 155.8594,517.8047 Q156.9531,517.1875 158.1875,517.1875 Q158.9219,517.1875 159.5703,517.3516 Q160.2188,517.5156 160.7656,517.875 Z " fill="#000000"/><text fill="#000000" font-family="sans-serif" font-size="12" lengthAdjust="spacing" textLength="96" x="172" y="526.9102">CKommunikation</text><line style="stroke:#A80036;stroke-width:1.5;" x1="144" x2="270" y1="538" y2="538"/><line style="stroke:#A80036;stroke-width:1.5;" x1="144" x2="270" y1="546" y2="546"/><!--MD5=[f81b092dd85bd27544ca410daf8512d9]
class CBefehl--><rect codeLine="4" fill="#FEFECE" filter="url(#f1oez0blb1mss0)" height="48" id="CBefehl" style="stroke:#A80036;stroke-width:1.5;" width="76" x="32" y="506"/><ellipse cx="47" cy="522" fill="#ADD1B2" rx="11" ry="11" style="stroke:#A80036;stroke-width:1.0;"/><path d="M49.7656,517.875 Q49.9219,517.6563 50.1094,517.5469 Q50.2969,517.4375 50.5156,517.4375 Q50.8906,517.4375 51.125,517.6953 Q51.3594,517.9531 51.3594,518.5625 L51.3594,520.0156 Q51.3594,520.625 51.125,520.8906 Q50.8906,521.1563 50.5156,521.1563 Q50.1719,521.1563 49.9688,520.9531 Q49.7656,520.7656 49.6563,520.25 Q49.6094,519.8906 49.4219,519.7031 Q49.0938,519.3281 48.4844,519.1094 Q47.875,518.8906 47.25,518.8906 Q46.4844,518.8906 45.8516,519.2188 Q45.2188,519.5469 44.7266,520.2969 Q44.2344,521.0469 44.2344,522.0781 L44.2344,523.1719 Q44.2344,524.4063 45.125,525.2266 Q46.0156,526.0469 47.6094,526.0469 Q48.5469,526.0469 49.2031,525.7969 Q49.5938,525.6406 50.0156,525.2031 Q50.2813,524.9375 50.4297,524.8594 Q50.5781,524.7813 50.7813,524.7813 Q51.1094,524.7813 51.3672,525.0391 Q51.625,525.2969 51.625,525.6406 Q51.625,525.9844 51.2813,526.3906 Q50.7813,526.9688 49.9844,527.2969 Q48.9063,527.75 47.6094,527.75 Q46.0938,527.75 44.8906,527.125 Q43.9063,526.625 43.2188,525.5547 Q42.5313,524.4844 42.5313,523.2031 L42.5313,522.0469 Q42.5313,520.7188 43.1484,519.5703 Q43.7656,518.4219 44.8594,517.8047 Q45.9531,517.1875 47.1875,517.1875 Q47.9219,517.1875 48.5703,517.3516 Q49.2188,517.5156 49.7656,517.875 Z " fill="#000000"/><text fill="#000000" font-family="sans-serif" font-size="12" lengthAdjust="spacing" textLength="44" x="61" y="526.9102">CBefehl</text><line style="stroke:#A80036;stroke-width:1.5;" x1="33" x2="107" y1="538" y2="538"/><line style="stroke:#A80036;stroke-width:1.5;" x1="33" x2="107" y1="546" y2="546"/><!--MD5=[92d424722643aa6e2b9c869f9cf1b33b]
class IRawReader--><rect codeLine="10" fill="#FEFECE" filter="url(#f1oez0blb1mss0)" height="48" id="IRawReader" style="stroke:#A80036;stroke-width:1.5;" width="101" x="215.5" y="42"/><ellipse cx="230.5" cy="58" fill="#B4A7E5" rx="11" ry="11" style="stroke:#A80036;stroke-width:1.0;"/><path d="M231.4531,54.6406 L231.4531,61.2969 L233.1719,61.2969 Q233.7813,61.2969 234.0469,61.5313 Q234.3125,61.7656 234.3125,62.1563 Q234.3125,62.5313 234.0469,62.7656 Q233.7813,63 233.1719,63 L228.0313,63 Q227.4219,63 227.1563,62.7656 Q226.8906,62.5313 226.8906,62.1406 Q226.8906,61.7656 227.1563,61.5313 Q227.4219,61.2969 228.0313,61.2969 L229.75,61.2969 L229.75,54.6406 L228.0313,54.6406 Q227.4219,54.6406 227.1563,54.4063 Q226.8906,54.1719 226.8906,53.7813 Q226.8906,53.4063 227.1563,53.1719 Q227.4219,52.9375 228.0313,52.9375 L233.1719,52.9375 Q233.7813,52.9375 234.0469,53.1719 Q234.3125,53.4063 234.3125,53.7813 Q234.3125,54.1719 234.0469,54.4063 Q233.7813,54.6406 233.1719,54.6406 L231.4531,54.6406 Z " fill="#000000"/><text fill="#000000" font-family="sans-serif" font-size="12" font-style="italic" lengthAdjust="spacing" textLength="69" x="244.5" y="62.9102">IRawReader</text><line style="stroke:#A80036;stroke-width:1.5;" x1="216.5" x2="315.5" y1="74" y2="74"/><line style="stroke:#A80036;stroke-width:1.5;" x1="216.5" x2="315.5" y1="82" y2="82"/><!--MD5=[e1ab01e67457a599d26668232e0f8111]
class IRawWriter--><rect codeLine="11" fill="#FEFECE" filter="url(#f1oez0blb1mss0)" height="48" id="IRawWriter" style="stroke:#A80036;stroke-width:1.5;" width="92" x="88" y="42"/><ellipse cx="103" cy="58" fill="#B4A7E5" rx="11" ry="11" style="stroke:#A80036;stroke-width:1.0;"/><path d="M103.9531,54.6406 L103.9531,61.2969 L105.6719,61.2969 Q106.2813,61.2969 106.5469,61.5313 Q106.8125,61.7656 106.8125,62.1563 Q106.8125,62.5313 106.5469,62.7656 Q106.2813,63 105.6719,63 L100.5313,63 Q99.9219,63 99.6563,62.7656 Q99.3906,62.5313 99.3906,62.1406 Q99.3906,61.7656 99.6563,61.5313 Q99.9219,61.2969 100.5313,61.2969 L102.25,61.2969 L102.25,54.6406 L100.5313,54.6406 Q99.9219,54.6406 99.6563,54.4063 Q99.3906,54.1719 99.3906,53.7813 Q99.3906,53.4063 99.6563,53.1719 Q99.9219,52.9375 100.5313,52.9375 L105.6719,52.9375 Q106.2813,52.9375 106.5469,53.1719 Q106.8125,53.4063 106.8125,53.7813 Q106.8125,54.1719 106.5469,54.4063 Q106.2813,54.6406 105.6719,54.6406 L103.9531,54.6406 Z " fill="#000000"/><text fill="#000000" font-family="sans-serif" font-size="12" font-style="italic" lengthAdjust="spacing" textLength="60" x="117" y="62.9102">IRawWriter</text><line style="stroke:#A80036;stroke-width:1.5;" x1="89" x2="179" y1="74" y2="74"/><line style="stroke:#A80036;stroke-width:1.5;" x1="89" x2="179" y1="82" y2="82"/><!--MD5=[76731f3e1e71ffe1670fc8cf02e43b15]
class ICommunicator--><rect codeLine="12" fill="#FEFECE" filter="url(#f1oez0blb1mss0)" height="48" id="ICommunicator" style="stroke:#A80036;stroke-width:1.5;" width="118" x="118" y="258"/><ellipse cx="133" cy="274" fill="#B4A7E5" rx="11" ry="11" style="stroke:#A80036;stroke-width:1.0;"/><path d="M133.9531,270.6406 L133.9531,277.2969 L135.6719,277.2969 Q136.2813,277.2969 136.5469,277.5313 Q136.8125,277.7656 136.8125,278.1563 Q136.8125,278.5313 136.5469,278.7656 Q136.2813,279 135.6719,279 L130.5313,279 Q129.9219,279 129.6563,278.7656 Q129.3906,278.5313 129.3906,278.1406 Q129.3906,277.7656 129.6563,277.5313 Q129.9219,277.2969 130.5313,277.2969 L132.25,277.2969 L132.25,270.6406 L130.5313,270.6406 Q129.9219,270.6406 129.6563,270.4063 Q129.3906,270.1719 129.3906,269.7813 Q129.3906,269.4063 129.6563,269.1719 Q129.9219,268.9375 130.5313,268.9375 L135.6719,268.9375 Q136.2813,268.9375 136.5469,269.1719 Q136.8125,269.4063 136.8125,269.7813 Q136.8125,270.1719 136.5469,270.4063 Q136.2813,270.6406 135.6719,270.6406 L133.9531,270.6406 Z " fill="#000000"/><text fill="#000000" font-family="sans-serif" font-size="12" font-style="italic" lengthAdjust="spacing" textLength="86" x="147" y="278.9102">ICommunicator</text><line style="stroke:#A80036;stroke-width:1.5;" x1="119" x2="235" y1="290" y2="290"/><line style="stroke:#A80036;stroke-width:1.5;" x1="119" x2="235" y1="298" y2="298"/><!--MD5=[13d2628ce05f155ced2ffc75215d678f]
class ReaderWriter--><rect codeLine="14" fill="#FEFECE" filter="url(#f1oez0blb1mss0)" height="48" id="ReaderWriter" style="stroke:#A80036;stroke-width:1.5;" width="105" x="124.5" y="150"/><ellipse cx="139.5" cy="166" fill="#ADD1B2" rx="11" ry="11" style="stroke:#A80036;stroke-width:1.0;"/><path d="M142.2656,161.875 Q142.4219,161.6563 142.6094,161.5469 Q142.7969,161.4375 143.0156,161.4375 Q143.3906,161.4375 143.625,161.6953 Q143.8594,161.9531 143.8594,162.5625 L143.8594,164.0156 Q143.8594,164.625 143.625,164.8906 Q143.3906,165.1563 143.0156,165.1563 Q142.6719,165.1563 142.4688,164.9531 Q142.2656,164.7656 142.1563,164.25 Q142.1094,163.8906 141.9219,163.7031 Q141.5938,163.3281 140.9844,163.1094 Q140.375,162.8906 139.75,162.8906 Q138.9844,162.8906 138.3516,163.2188 Q137.7188,163.5469 137.2266,164.2969 Q136.7344,165.0469 136.7344,166.0781 L136.7344,167.1719 Q136.7344,168.4063 137.625,169.2266 Q138.5156,170.0469 140.1094,170.0469 Q141.0469,170.0469 141.7031,169.7969 Q142.0938,169.6406 142.5156,169.2031 Q142.7813,168.9375 142.9297,168.8594 Q143.0781,168.7813 143.2813,168.7813 Q143.6094,168.7813 143.8672,169.0391 Q144.125,169.2969 144.125,169.6406 Q144.125,169.9844 143.7813,170.3906 Q143.2813,170.9688 142.4844,171.2969 Q141.4063,171.75 140.1094,171.75 Q138.5938,171.75 137.3906,171.125 Q136.4063,170.625 135.7188,169.5547 Q135.0313,168.4844 135.0313,167.2031 L135.0313,166.0469 Q135.0313,164.7188 135.6484,163.5703 Q136.2656,162.4219 137.3594,161.8047 Q138.4531,161.1875 139.6875,161.1875 Q140.4219,161.1875 141.0703,161.3516 Q141.7188,161.5156 142.2656,161.875 Z " fill="#000000"/><text fill="#000000" font-family="sans-serif" font-size="12" lengthAdjust="spacing" textLength="73" x="153.5" y="170.9102">ReaderWriter</text><line style="stroke:#A80036;stroke-width:1.5;" x1="125.5" x2="228.5" y1="182" y2="182"/><line style="stroke:#A80036;stroke-width:1.5;" x1="125.5" x2="228.5" y1="190" y2="190"/><!--MD5=[504e2d2577838535ab74e9cfcf4a3e02]
class Communicator--><rect codeLine="23" fill="#FEFECE" filter="url(#f1oez0blb1mss0)" height="48" id="Communicator" style="stroke:#A80036;stroke-width:1.5;" width="114" x="120" y="382"/><ellipse cx="135" cy="398" fill="#ADD1B2" rx="11" ry="11" style="stroke:#A80036;stroke-width:1.0;"/><path d="M137.7656,393.875 Q137.9219,393.6563 138.1094,393.5469 Q138.2969,393.4375 138.5156,393.4375 Q138.8906,393.4375 139.125,393.6953 Q139.3594,393.9531 139.3594,394.5625 L139.3594,396.0156 Q139.3594,396.625 139.125,396.8906 Q138.8906,397.1563 138.5156,397.1563 Q138.1719,397.1563 137.9688,396.9531 Q137.7656,396.7656 137.6563,396.25 Q137.6094,395.8906 137.4219,395.7031 Q137.0938,395.3281 136.4844,395.1094 Q135.875,394.8906 135.25,394.8906 Q134.4844,394.8906 133.8516,395.2188 Q133.2188,395.5469 132.7266,396.2969 Q132.2344,397.0469 132.2344,398.0781 L132.2344,399.1719 Q132.2344,400.4063 133.125,401.2266 Q134.0156,402.0469 135.6094,402.0469 Q136.5469,402.0469 137.2031,401.7969 Q137.5938,401.6406 138.0156,401.2031 Q138.2813,400.9375 138.4297,400.8594 Q138.5781,400.7813 138.7813,400.7813 Q139.1094,400.7813 139.3672,401.0391 Q139.625,401.2969 139.625,401.6406 Q139.625,401.9844 139.2813,402.3906 Q138.7813,402.9688 137.9844,403.2969 Q136.9063,403.75 135.6094,403.75 Q134.0938,403.75 132.8906,403.125 Q131.9063,402.625 131.2188,401.5547 Q130.5313,400.4844 130.5313,399.2031 L130.5313,398.0469 Q130.5313,396.7188 131.1484,395.5703 Q131.7656,394.4219 132.8594,393.8047 Q133.9531,393.1875 135.1875,393.1875 Q135.9219,393.1875 136.5703,393.3516 Q137.2188,393.5156 137.7656,393.875 Z " fill="#000000"/><text fill="#000000" font-family="sans-serif" font-size="12" lengthAdjust="spacing" textLength="82" x="149" y="402.9102">Communicator</text><line style="stroke:#A80036;stroke-width:1.5;" x1="121" x2="233" y1="414" y2="414"/><line style="stroke:#A80036;stroke-width:1.5;" x1="121" x2="233" y1="422" y2="422"/><!--MD5=[bb087d4acf69a914991c46dd44b1d7cb]
reverse link IRawReader to ReaderWriter--><path d="M233.5,105.7 C221.12,120.45 207.4,136.79 196.58,149.68 " fill="none" id="IRawReader-backto-ReaderWriter" style="stroke:#A80036;stroke-width:1.0;stroke-dasharray:7.0,7.0;"/><polygon fill="none" points="228.47,100.82,246.69,90,239.19,109.82,228.47,100.82" style="stroke:#A80036;stroke-width:1.0;"/><!--MD5=[9346055e27acc0555b975864ca52e6fb]
reverse link IRawWriter to ReaderWriter--><path d="M150.87,108.57 C156.53,122.54 162.65,137.62 167.54,149.68 " fill="none" id="IRawWriter-backto-ReaderWriter" style="stroke:#A80036;stroke-width:1.0;stroke-dasharray:7.0,7.0;"/><polygon fill="none" points="144.36,111.16,143.33,90,157.34,105.9,144.36,111.16" style="stroke:#A80036;stroke-width:1.0;"/><!--MD5=[119dcead81edee8076331ea104f59a9a]
link ReaderWriter to ICommunicator--><path codeLine="18" d="M177,210 C177,210 177,233.68 177,244.36 " fill="none" id="ReaderWriter-ICommunicator" style="stroke:#A80036;stroke-width:1.0;"/><polygon fill="#A80036" points="177,257.68,181,248.68,177,252.68,173,248.68,177,257.68" style="stroke:#A80036;stroke-width:1.0;"/><line style="stroke:#A80036;stroke-width:1.0;" x1="177" x2="177" y1="252.68" y2="244.68"/><polygon fill="#FFFFFF" points="177,198,173,204,177,210,181,204,177,198" style="stroke:#A80036;stroke-width:1.0;"/><!--MD5=[ea9f77b59b4f9dd941481cb643c6a036]
reverse link ICommunicator to Communicator--><path d="M177,326.27 C177,345.01 177,366.18 177,381.85 " fill="none" id="ICommunicator-backto-Communicator" style="stroke:#A80036;stroke-width:1.0;stroke-dasharray:7.0,7.0;"/><polygon fill="none" points="170,326.23,177,306.23,184,326.23,170,326.23" style="stroke:#A80036;stroke-width:1.0;"/><!--MD5=[1c73e1c25f7039ada606f9a740fcf398]
link Communicator to CKommunikation--><path codeLine="24" d="M185.5708,441.884 C185.5708,441.884 194.26,477.17 198.12,492.87 " fill="none" id="Communicator-CKommunikation" style="stroke:#A80036;stroke-width:1.0;"/><polygon fill="#A80036" points="201.31,505.85,203.0466,496.1554,200.1167,500.9945,195.2777,498.0647,201.31,505.85" style="stroke:#A80036;stroke-width:1.0;"/><line style="stroke:#A80036;stroke-width:1.0;" x1="200.1167" x2="198.205" y1="500.9945" y2="493.225"/><polygon fill="#A80036" points="182.71,430.23,180.2557,437.0106,185.5708,441.884,188.0251,435.1034,182.71,430.23" style="stroke:#A80036;stroke-width:1.0;"/><!--MD5=[ded8022008fab681b000ff3146435903]
link Communicator to CBefehl--><path codeLine="25" d="M146.1019,438.9266 C146.1019,438.9266 131.45,454.68 125,462 C115.6,472.67 105.64,484.59 96.82,495.39 " fill="none" id="Communicator-CBefehl" style="stroke:#A80036;stroke-width:1.0;"/><polygon fill="#A80036" points="88.45,505.72,97.2243,501.2466,91.5982,501.8356,91.0092,496.2095,88.45,505.72" style="stroke:#A80036;stroke-width:1.0;"/><line style="stroke:#A80036;stroke-width:1.0;" x1="91.5982" x2="96.635" y1="501.8356" y2="495.625"/><polygon fill="#A80036" points="154.36,430.22,147.3288,431.8206,146.1019,438.9266,153.1332,437.326,154.36,430.22" style="stroke:#A80036;stroke-width:1.0;"/><!--MD5=[7c73494d5d3f69bd2f0e72dfd55a7ab7]
@startuml

package Befehlsinterpreter{
   class CKommunikation
   class CBefehl
}



package DlmsQuickAccess.Dlms{
   interface IRawReader
   interface IRawWriter
   interface ICommunicator

   class ReaderWriter implements IRawReader, IRawWriter{

   }

   ReaderWriter o- -> ICommunicator

}

package DlmsQuickAccess.Befehlsinterpreter{
   class Communicator implements ICommunicator
   Communicator *- -> CKommunikation
   Communicator *- -> CBefehl
}

@enduml

PlantUML version 1.2022.0(Tue Jan 11 17:16:42 CET 2022)
(GPL source distribution)
Java Runtime: Java(TM) SE Runtime Environment
JVM: Java HotSpot(TM) 64-Bit Server VM
Default Encoding: Cp1252
Language: en
Country: US
--></g></svg>